<?xml version="1.0" encoding="UTF-8"?><svg id="Layer_1" xmlns="http://www.w3.org/2000/svg" xmlns:xlink="http://www.w3.org/1999/xlink" viewBox="0 0 301.18 301.18"><defs><style>.cls-1{fill:url(#linear-gradient);}.cls-1,.cls-2,.cls-3,.cls-4,.cls-5,.cls-6{stroke-width:0px;}.cls-2{fill:url(#linear-gradient-6);}.cls-7{opacity:.65;}.cls-3{fill:url(#linear-gradient-5);}.cls-4{fill:url(#linear-gradient-2);}.cls-5{fill:url(#linear-gradient-3);}.cls-6{fill:url(#linear-gradient-4);}</style><linearGradient id="linear-gradient" x1="150.59" y1="-11.65" x2="150.59" y2="322.51" gradientUnits="userSpaceOnUse"><stop offset="0" stop-color="#fff"/><stop offset="1" stop-color="#c4c3c3"/></linearGradient><linearGradient id="linear-gradient-2" x1="150.59" y1="318.6" x2="150.59" y2="-20.08" xlink:href="#linear-gradient"/><linearGradient id="linear-gradient-3" x1="150.59" y1="19.16" x2="150.59" y2="279.06" gradientTransform="translate(277.46 -20.47) rotate(81.56)" xlink:href="#linear-gradient"/><linearGradient id="linear-gradient-4" x1="-1812.51" y1="451.9" x2="-1812.51" y2="607.74" gradientTransform="translate(-1661.91 680.29) rotate(-180)" xlink:href="#linear-gradient"/><linearGradient id="linear-gradient-5" x1="-1812.5" y1="593.39" x2="-1812.5" y2="454.27" gradientTransform="translate(-1661.91 680.29) rotate(-180)" xlink:href="#linear-gradient"/><linearGradient id="linear-gradient-6" x1="-1812.5" y1="470.67" x2="-1812.5" y2="598.69" gradientTransform="translate(-1661.91 680.29) rotate(-180)" xlink:href="#linear-gradient"/></defs><g class="cls-7"><path class="cls-1" d="m150.59,301.18C67.56,301.18,0,233.63,0,150.59S67.56,0,150.59,0s150.58,67.55,150.58,150.59-67.55,150.59-150.58,150.59Zm0-259.31c-59.96,0-108.73,48.77-108.73,108.73s48.77,108.73,108.73,108.73,108.72-48.77,108.72-108.73-48.77-108.73-108.72-108.73Z"/><path class="cls-4" d="m150.59,283.73c-73.42,0-133.15-59.73-133.15-133.14S77.17,17.44,150.59,17.44s133.15,59.73,133.15,133.14-59.73,133.14-133.15,133.14Zm0-259.31c-69.57,0-126.17,56.6-126.17,126.17s56.6,126.17,126.17,126.17,126.17-56.6,126.17-126.17S220.16,24.42,150.59,24.42Z"/><circle class="cls-5" cx="150.59" cy="150.59" r="129.66" transform="translate(-20.46 277.46) rotate(-81.56)"/><path class="cls-6" d="m150.59,81.12c39.27,0,71.22,31.94,71.22,71.22s-31.95,71.22-71.22,71.22-71.22-31.94-71.22-71.22,31.95-71.22,71.22-71.22Zm0,107.79c20.16,0,36.57-16.4,36.57-36.57s-16.41-36.58-36.57-36.58-36.58,16.41-36.58,36.58,16.4,36.57,36.58,36.57Z"/><path class="cls-3" d="m150.59,95.55c31.31,0,56.78,25.48,56.78,56.79s-25.48,56.78-56.78,56.78-56.79-25.48-56.79-56.78,25.47-56.79,56.79-56.79Zm0,107.8c28.12,0,51.01-22.88,51.01-51.01s-22.88-51.02-51.01-51.02-51.01,22.89-51.01,51.02,22.88,51.01,51.01,51.01Z"/><path class="cls-2" d="m96.69,152.34c0-29.77,24.13-53.9,53.9-53.9s53.89,24.13,53.89,53.9-24.13,53.89-53.89,53.89-53.9-24.13-53.9-53.89Z"/></g></svg>