<?xml version="1.0" encoding="UTF-8"?><svg id="OBJECTS" xmlns="http://www.w3.org/2000/svg" viewBox="0 0 856.05 457.71"><defs><style>.cls-1{fill:#fe0000;}.cls-1,.cls-2{stroke-width:0px;}.cls-1,.cls-3{opacity:.75;}.cls-4,.cls-5,.cls-6,.cls-7,.cls-8,.cls-9{fill:none;stroke-miterlimit:10;}.cls-4,.cls-5,.cls-6,.cls-8,.cls-9{stroke:#fff;}.cls-4,.cls-7{stroke-width:1.09px;}.cls-10{letter-spacing:.01em;}.cls-6{stroke-width:.7px;}.cls-7{stroke:#020202;}.cls-8{stroke-width:3px;}.cls-9{stroke-width:2.19px;}.cls-2,.cls-11{fill:#fff;}.cls-11{font-family:JosefinSans-Medium, 'JosefinSans Medium';font-size:20px;font-weight:500;}</style></defs><g class="cls-3"><polyline class="cls-8" points="854.55 133.3 854.55 1.5 722.75 1.5"/><polyline class="cls-8" points="854.55 315.7 854.55 447.5 722.75 447.5"/><text class="cls-11" transform="translate(791.37 431.31)"><tspan x="0" y="0">1/125</tspan></text><text class="cls-11" transform="translate(751.27 431.31)"><tspan x="0" y="0">F8</tspan></text><text class="cls-11" transform="translate(775.83 398.64)"><tspan x="0" y="0">ISO 800</tspan></text><line class="cls-6" x1="847.27" y1="224.5" x2="855.8" y2="224.5"/><line class="cls-6" x1="847.27" y1="220.32" x2="855.8" y2="220.32"/><line class="cls-6" x1="847.27" y1="216.14" x2="855.8" y2="216.14"/><line class="cls-6" x1="847.27" y1="211.96" x2="855.8" y2="211.96"/><line class="cls-6" x1="847.27" y1="207.78" x2="855.8" y2="207.78"/><line class="cls-6" x1="847.27" y1="203.6" x2="855.8" y2="203.6"/><line class="cls-6" x1="847.27" y1="203.6" x2="855.8" y2="203.6"/><line class="cls-6" x1="847.27" y1="199.42" x2="855.8" y2="199.42"/><line class="cls-6" x1="847.27" y1="195.24" x2="855.8" y2="195.24"/><line class="cls-6" x1="847.27" y1="191.07" x2="855.8" y2="191.07"/><line class="cls-6" x1="847.27" y1="186.89" x2="855.8" y2="186.89"/><line class="cls-6" x1="847.27" y1="182.71" x2="855.8" y2="182.71"/><line class="cls-6" x1="847.27" y1="182.71" x2="855.8" y2="182.71"/><line class="cls-6" x1="847.27" y1="178.53" x2="855.8" y2="178.53"/><line class="cls-6" x1="847.27" y1="174.35" x2="855.8" y2="174.35"/><line class="cls-6" x1="847.27" y1="170.17" x2="855.8" y2="170.17"/><line class="cls-6" x1="847.27" y1="165.99" x2="855.8" y2="165.99"/><line class="cls-6" x1="847.27" y1="161.81" x2="855.8" y2="161.81"/><line class="cls-6" x1="847.27" y1="161.81" x2="855.8" y2="161.81"/><line class="cls-6" x1="847.27" y1="157.63" x2="855.8" y2="157.63"/><line class="cls-6" x1="847.27" y1="153.45" x2="855.8" y2="153.45"/><line class="cls-6" x1="847.27" y1="149.27" x2="855.8" y2="149.27"/><line class="cls-6" x1="847.27" y1="145.09" x2="855.8" y2="145.09"/><line class="cls-6" x1="847.27" y1="140.91" x2="855.8" y2="140.91"/><line class="cls-5" x1="841.21" y1="224.5" x2="855.8" y2="224.5"/><line class="cls-5" x1="841.21" y1="203.6" x2="855.8" y2="203.6"/><line class="cls-5" x1="841.21" y1="182.71" x2="855.8" y2="182.71"/><line class="cls-5" x1="841.21" y1="161.81" x2="855.8" y2="161.81"/><line class="cls-5" x1="841.21" y1="140.91" x2="855.8" y2="140.91"/><line class="cls-6" x1="847.27" y1="224.5" x2="855.8" y2="224.5"/><line class="cls-6" x1="847.27" y1="228.68" x2="855.8" y2="228.68"/><line class="cls-6" x1="847.27" y1="232.86" x2="855.8" y2="232.86"/><line class="cls-6" x1="847.27" y1="237.04" x2="855.8" y2="237.04"/><line class="cls-6" x1="847.27" y1="241.22" x2="855.8" y2="241.22"/><line class="cls-6" x1="847.27" y1="245.4" x2="855.8" y2="245.4"/><line class="cls-6" x1="847.27" y1="245.4" x2="855.8" y2="245.4"/><line class="cls-6" x1="847.27" y1="249.58" x2="855.8" y2="249.58"/><line class="cls-6" x1="847.27" y1="253.75" x2="855.8" y2="253.75"/><line class="cls-6" x1="847.27" y1="257.93" x2="855.8" y2="257.93"/><line class="cls-6" x1="847.27" y1="262.11" x2="855.8" y2="262.11"/><line class="cls-6" x1="847.27" y1="266.29" x2="855.8" y2="266.29"/><line class="cls-6" x1="847.27" y1="266.29" x2="855.8" y2="266.29"/><line class="cls-6" x1="847.27" y1="270.47" x2="855.8" y2="270.47"/><line class="cls-6" x1="847.27" y1="274.65" x2="855.8" y2="274.65"/><line class="cls-6" x1="847.27" y1="278.83" x2="855.8" y2="278.83"/><line class="cls-6" x1="847.27" y1="283.01" x2="855.8" y2="283.01"/><line class="cls-6" x1="847.27" y1="287.19" x2="855.8" y2="287.19"/><line class="cls-6" x1="847.27" y1="287.19" x2="855.8" y2="287.19"/><line class="cls-6" x1="847.27" y1="291.37" x2="855.8" y2="291.37"/><line class="cls-6" x1="847.27" y1="295.55" x2="855.8" y2="295.55"/><line class="cls-6" x1="847.27" y1="299.73" x2="855.8" y2="299.73"/><line class="cls-6" x1="847.27" y1="303.91" x2="855.8" y2="303.91"/><line class="cls-6" x1="847.27" y1="308.09" x2="855.8" y2="308.09"/><line class="cls-5" x1="841.21" y1="224.5" x2="855.8" y2="224.5"/><line class="cls-5" x1="841.21" y1="245.4" x2="855.8" y2="245.4"/><line class="cls-5" x1="841.21" y1="266.29" x2="855.8" y2="266.29"/><line class="cls-5" x1="841.21" y1="287.19" x2="855.8" y2="287.19"/><line class="cls-5" x1="841.21" y1="308.09" x2="855.8" y2="308.09"/></g><g class="cls-3"><text class="cls-11" transform="translate(330.87 431.31)"><tspan x="0" y="0">3 . . 2 . . 1 . . 0 . . 1 . . 2 . . 3</tspan></text><circle class="cls-8" cx="429.77" cy="224.5" r="9.73"/><polyline class="cls-8" points="406.72 182.71 387.98 182.71 387.98 201.45"/><polyline class="cls-8" points="387.98 247.55 387.98 266.29 406.72 266.29"/><polyline class="cls-8" points="452.83 182.71 471.57 182.71 471.57 201.45"/><polyline class="cls-8" points="471.57 247.55 471.57 266.29 452.83 266.29"/><rect class="cls-2" x="427.27" y="438.96" width="5" height="18.75"/></g><g class="cls-3"><polyline class="cls-8" points="1.5 133.3 1.5 1.5 133.3 1.5"/><polyline class="cls-8" points="1.5 315.7 1.5 447.5 133.3 447.5"/></g><g class="cls-3"><text class="cls-11" transform="translate(16.78 33.94)"><tspan x="0" y="0">LIVE </tspan></text></g><path class="cls-1" d="m89.98,26.98c0-4.16-3.37-7.53-7.53-7.53s-7.53,3.37-7.53,7.53,3.37,7.53,7.53,7.53,7.53-3.37,7.53-7.53Z"/><g class="cls-3"><text class="cls-11" transform="translate(20.71 431.31)"><tspan x="0" y="0">AF</tspan><tspan class="cls-10" x="21.98" y="0">-</tspan><tspan x="28.4" y="0">C</tspan></text></g><g class="cls-3"><text class="cls-11" transform="translate(114.38 431.31)"><tspan x="0" y="0">0.0</tspan></text></g><g class="cls-3"><rect class="cls-9" x="80.25" y="415.62" width="19.68" height="19.68"/><line class="cls-4" x1="96.1" y1="428.34" x2="90.71" y2="428.34"/><polygon class="cls-2" points="80.25 435.3 80.25 415.62 99.92 415.62 80.25 435.3"/><line class="cls-7" x1="85.95" y1="417.5" x2="85.95" y2="424.52"/><line class="cls-7" x1="89.46" y1="421.01" x2="82.45" y2="421.01"/></g></svg>